# AST/ASF file generated using VICON BodyLanguage
# -----------------------------------------------
:version 1.10
:name VICON
:units
  mass 1.0
  length 0.45
  angle deg
:documentation
   .ast/.asf automatically generated from VICON data using
   VICON BodyBuilder and BodyLanguage model FoxedUp or BRILLIANT.MOD
:root
   order TX TY TZ RX RY RZ
   axis XYZ
   position 0 0 0  
   orientation 0 0 0 
:bonedata
  begin
     id 1 
     name lhipjoint
     direction 0.57768 -0.667037 0.470475 
     length 2.36008 
     axis 0 0 0  XYZ
  end
  begin
     id 2 
     name lfemur
     direction 0.34202 -0.939693 0  
     length 6.97235  
     axis 0 0 20  XYZ
    dof rx ry rz
    limits (-160.0 20.0)
           (-70.0 70.0)
           (-60.0 70.0)
  end
  begin
     id 3 
     name ltibia
     direction 0.34202 -0.939693 0   
     length 6.93428   
     axis 0 0 20   XYZ
    dof rx
    limits (-10.0 170.0)
  end
  begin
     id 4 
     name lfoot
     direction 0.133018 -0.365463 0.921272   
     length 2.18603   
     axis -90 7.62852e-016 20   XYZ
    dof rx rz
    limits (-45.0 90.0)
           (-70.0 20.0)
  end
  begin
     id 5 
     name ltoes
     direction 1.53519e-011 -4.22055e-011 1   
     length 1.07924   
     axis -90 7.62852e-016 20   XYZ
    dof rx
    limits (-90.0 20.0)
  end
  begin
     id 6 
     name rhipjoint
     direction -0.577712 -0.667019 0.470462   
     length 2.36015  
     axis 0 0 0  XYZ 
  end
  begin
     id 7 
     name rfemur
     direction -0.34202 -0.939693 0   
     length 6.71195   
     axis 0 0 -20   XYZ
    dof rx ry rz
    limits (-160.0 20.0)
           (-70.0 70.0)
           (-70.0 60.0)
  end
  begin
     id 8 
     name rtibia
     direction -0.34202 -0.939693 0   
     length 7.04592   
     axis 0 0 -20   XYZ
    dof rx
    limits (-10.0 170.0)
 end
 begin
     id 9 
     name rfoot
     direction -0.113796 -0.312651 0.943027   
     length 2.03846  
     axis -90 -7.62852e-016 -20   XYZ
    dof rx rz
    limits (-45.0 90.0)
           (-20.0 70.0)
  end
  begin
     id 10 
     name rtoes
     direction -1.53586e-011 -4.218e-011 1   
     length 1.01562   
     axis -90 -7.62852e-016 -20   XYZ
    dof rx
    limits (-90.0 20.0)
  end
  begin
     id 11 
     name lowerback
     direction -0.0417299 0.991937 -0.119667   
     length 2.05257   
     axis 0 0 0   XYZ
    dof rx ry rz
    limits (-20.0 45.0)
           (-30.0 30.0)
           (-30.0 30.0)
  end
  begin
     id 12 
     name upperback
     direction -0.00017666 0.999999 0.00105178   
     length 2.05693   
     axis 0 0 0   XYZ
    dof rx ry rz
    limits (-20.0 45.0)
           (-30.0 30.0)
           (-30.0 30.0)
  end
  begin
     id 13 
     name thorax
     direction 0.0185169 0.998203 0.0569866   
     length 2.0932   
     axis 0 0 0   XYZ
    dof rx ry rz
    limits (-20.0 45.0)
           (-30.0 30.0)
           (-30.0 30.0)
  end
  begin
     id 14 
     name lowerneck
     direction -0.0212406 0.982645 0.184277   
     length 1.72509   
     axis 0 0 0   XYZ
    dof rx ry rz
    limits (-20.0 45.0)
           (-30.0 30.0)
           (-30.0 30.0)
  end
  begin
     id 15 
     name upperneck
     direction 0.00528579 0.965323 -0.261004   
     length 1.76294   
     axis 0 0 0   XYZ
    dof rx ry rz
    limits (-20.0 45.0)
           (-30.0 30.0)
           (-30.0 30.0)
  end
  begin
     id 16
     name head
     direction 0.00695421 0.994078 -0.108445  
     length 1.78678  
     axis 0 0 0   XYZ
    dof rx ry rz
    limits (-20.0 45.0)
           (-30.0 30.0)
           (-30.0 30.0)
  end
  begin
     id 17 
     name lclavicle
     direction 0.97277 0.211305 -0.095232  
     length 3.84823  
     axis 0 0 0   XYZ
    dof ry rz
    limits (-20.0 10.0)
           (0.0 20.0)
  end
  begin
     id 18 
     name lhumerus
     direction 1 -4.48957e-011 -1.98313e-027   
     length 4.97185   
     axis 180 -30 -90   XYZ
    dof rx ry rz
    limits (-60.0 90.0)
           (-90.0 90.0)
           (-90.0 90.0)
  end
  begin
     id 19
     name lradius
     direction 1 -4.4898e-011 7.31063e-027   
     length 3.35811   
     axis 180 -30 -90   XYZ
    dof rx
    limits (-10.0 170.0)
  end
  begin
     id 20
     name lwrist
     direction 1 -4.48938e-011 9.95048e-027   
     length 1.67905   
     axis -8.75986e-015 90 90   XYZ
    dof ry
    limits (-180.0 0.0)
 end
  begin
     id 21 
     name lhand
     direction 1 -4.4901e-011 1.9901e-026   
     length 0.622776   
     axis -1.26985e-014 90 90   XYZ
    dof rx rz
    limits (-90.0 90.0)
           (-45.0 45.0)
  end
  begin
     id 22 
     name lfingers
     direction 1 -4.48961e-011 3.98019e-026   
     length 0.502098   
     axis -2.5397e-014 90 90   XYZ
    dof rx
    limits (0.0 90.0)
  end
  begin
     id 23
     name lthumb
     direction 0.707107 -6.34933e-011 0.707107   
     length 0.720915   
     axis -90 45 2.85299e-015   XYZ
    dof rx rz
    limits (-45.0 45.0)
           (-45.0 45.0)
  end
  begin
     id 24 
     name rclavicle
     direction -0.990867 0.133739 -0.0172226   
     length 3.78845  
     axis 0 0 0   XYZ 
    dof ry rz
    limits (-10.0 20.0)
           (-20.0 0.0)
  end
  begin
     id 25 
     name rhumerus
     direction -1 -4.48972e-011 -1.99267e-027  
     length 4.96493   
     axis 180 30 90   XYZ
    dof rx ry rz
    limits (-90.0 60.0)
           (-90.0 90.0)
           (-90.0 90.0)
  end
  begin
     id 26 
     name rradius
     direction -1 -4.48969e-011 8.96093e-027   
     length 3.34929   
     axis 180 30 90   XYZ
    dof rx
    limits (-10.0 170.0)
  end
  begin
     id 27 
     name rwrist
     direction -1 -4.48953e-011 9.95048e-027   
     length 1.67464   
     axis -8.75986e-015 -90 -90   XYZ
    dof ry
    limits (-180.0 0.0)
  end
  begin
     id 28
     name rhand
     direction -1 -4.49001e-011 1.9901e-026   
     length 0.638041   
     axis -1.26985e-014 -90 -90   XYZ
    dof rx rz
    limits (-90.0 90.0)
           (-45.0 45.0)
  end
  begin
     id 29
     name rfingers
     direction -1 -4.48967e-011 3.98019e-026   
     length 0.514405   
     axis -2.5397e-014 -90 -90   XYZ
    dof rx
    limits (0.0 90.0)
  end
  begin
     id 30
     name rthumb
     direction -0.707107 -6.34904e-011 0.707107   
     length 0.738586   
     axis -90 -45 -2.85299e-015   XYZ
    dof rx rz
    limits (-45.0 45.0)
           (-45.0 45.0)
  end
:hierarchy
  begin
    root lhipjoint rhipjoint lowerback
    lhipjoint lfemur
    lfemur ltibia
    ltibia lfoot
    lfoot ltoes
    rhipjoint rfemur
    rfemur rtibia
    rtibia rfoot
    rfoot rtoes
    lowerback upperback
    upperback thorax
    thorax lowerneck lclavicle rclavicle
    lowerneck upperneck
    upperneck head
    lclavicle lhumerus
    lhumerus lradius
    lradius lwrist
    lwrist lhand lthumb
    lhand lfingers
    rclavicle rhumerus
    rhumerus rradius
    rradius rwrist
    rwrist rhand rthumb
    rhand rfingers
  end

#!OML:ASF E:\Mandelcareful walks\Project 1\Capture day 1\Session 1\Subject1.ASF
:FULLY-SPECIFIED
:DEGREES
60
root -22.1877 16.6779 0.445524 -15.6712 91.7233 -20.688
lowerback -9.1928 -1.06768 -3.66234
upperback 1.13975 -1.04354 0.61902
thorax 6.44376 -0.655026 2.56008
lowerneck -23.606 0.169174 -2.94244
upperneck 27.7652 1.45829 0.771844
head 13.2568 0.536659 1.08937
rclavicle 9.47333e-016 8.57259e-015
rhumerus -28.4387 -14.8348 -81.9345
rradius 25.2871
rwrist -3.84361
rhand -7.57716 -30.3695
rfingers 7.12502
rthumb 18.3157 -59.5272
lclavicle 9.47333e-016 8.57259e-015
lhumerus -26.0932 -2.43375 93.1769
lradius 19.4185
lwrist 3.21834
lhand -20.899 -12.4881
lfingers 7.12502
lthumb 5.47182 17.4213
rfemur -5.57157 -0.120693 17.7588
rtibia 19.7491
rfoot -32.1382 -34.0172
rtoes 18.564
lfemur -10.219 -1.83194 -18.7941
ltibia 29.1038
lfoot -27.21 20.2594
ltoes 8.83304
61
root -22.1879 16.677 0.44566 -14.1265 91.7244 -19.1185
lowerback -9.20283 -1.07305 -3.62055
upperback 1.17178 -1.05469 0.617008
thorax 6.4833 -0.660205 2.5324
lowerneck -23.6482 0.180357 -2.87226
upperneck 27.7763 1.45684 0.743617
head 13.2708 0.539043 1.0666
rclavicle 1.11195e-015 -2.48481e-016
rhumerus -28.3803 -14.7863 -82.0256
rradius 25.326
rwrist -3.87014
rhand -7.62807 -30.4644
rfingers 7.12502
rthumb 18.2667 -59.6267
lclavicle 1.11195e-015 -2.48481e-016
lhumerus -26.0417 -2.42841 93.1279
lradius 19.4039
lwrist 3.23632
lhand -20.9369 -12.5961
lfingers 7.12502
lthumb 5.43527 17.3142
rfemur -5.52111 -0.178666 17.8178
rtibia 19.689
rfoot -31.7593 -34.1504
rtoes 17.929
lfemur -10.2193 -1.79576 -18.7385
ltibia 29.143
lfoot -27.1819 20.2334
ltoes 9.3805
62
root -22.1897 16.676 0.446449 -12.9946 91.7112 -17.9666
lowerback -9.1464 -1.06086 -3.59963
upperback 1.14428 -1.0442 0.630921
thorax 6.42104 -0.653067 2.53758
lowerneck -23.5618 0.187708 -2.8515
upperneck 27.7219 1.46046 0.727425
head 13.2308 0.541547 1.05604
rclavicle -5.40135e-015 -2.23633e-015
rhumerus -28.4373 -14.8107 -82.0209
rradius 25.37
rwrist -3.86331
rhand -7.75703 -30.6509
rfingers 7.12502
rthumb 18.1426 -59.8248
lclavicle -5.40135e-015 -2.23633e-015
lhumerus -26.0972 -2.36856 93.1323
lradius 19.4146
lwrist 3.15915
lhand -20.9619 -12.5505
lfingers 7.12502
lthumb 5.41109 17.3604
rfemur -5.479 -0.0752068 17.8679
rtibia 19.6505
rfoot -31.8794 -34.1504
rtoes 17.9659
lfemur -10.2222 -1.88561 -18.6898
ltibia 29.1692
lfoot -27.2684 20.2486
ltoes 9.58313
63
root -22.1914 16.6763 0.447006 -13.8068 91.6762 -18.808
lowerback -9.1485 -1.01124 -3.60017
upperback 1.11681 -0.976 0.598865
thorax 6.3875 -0.61787 2.51439
lowerneck -23.467 0.157022 -2.81298
upperneck 27.6026 1.39612 0.717333
head 13.1637 0.517025 1.03167
rclavicle 3.78545e-015 2.13694e-015
rhumerus -28.4986 -15.0196 -81.9914
rradius 25.4131
rwrist -3.79227
rhand -7.79526 -30.8233
rfingers 7.12502
rthumb 18.1058 -60.0006
lclavicle 3.78545e-015 2.13694e-015
lhumerus -26.2355 -2.87289 93.2678
lradius 19.6174
lwrist 3.53398
lhand -21.0295 -12.317
lfingers 7.12502
lthumb 5.34585 17.5956
rfemur -5.51569 0.139894 17.8624
rtibia 19.6603
rfoot -32.2814 -34.0938
rtoes 18.3147
lfemur -10.2452 -1.9737 -18.7036
ltibia 29.1622
lfoot -27.3992 20.3036
ltoes 9.62305
64
root -22.1908 16.6765 0.446742 -16.736 91.6752 -21.7313
lowerback -9.17777 -1.01229 -3.6802
upperback 1.14033 -0.964474 0.561933
thorax 6.42923 -0.615437 2.52197
lowerneck -23.4982 0.161904 -2.74196
upperneck 27.5781 1.38856 0.672368
head 13.1611 0.514437 1.00054
rclavicle 3.5226e-015 3.46631e-015
rhumerus -28.4766 -15.1284 -82.006
rradius 25.3954
rwrist -3.72543
rhand -7.86947 -30.692
rfingers 7.12502
rthumb 18.0344 -59.8759
lclavicle 3.5226e-015 3.46631e-015
lhumerus -26.4486 -3.62908 93.4512
lradius 20.0271
lwrist 4.28693
lhand -21.0158 -12.0125
lfingers 7.12502
lthumb 5.35908 17.8997
rfemur -5.52897 0.150837 17.7748
rtibia 19.6881
rfoot -32.1163 -34.1771
rtoes 17.7477
lfemur -10.204 -1.90584 -18.7931
ltibia 29.1324
lfoot -27.4527 20.287
ltoes 9.44245
65
root -22.19 16.6754 0.446483 -19.0078 91.7137 -23.9689
lowerback -9.17399 -1.03267 -3.78538
upperback 1.16073 -0.979356 0.558029
thorax 6.45194 -0.627218 2.57491
lowerneck -23.5035 0.180785 -2.73844
upperneck 27.5614 1.4089 0.686084
head 13.1546 0.525552 1.00871
rclavicle -1.64075e-014 -5.46658e-015
rhumerus -28.467 -15.1082 -82.0026
rradius 25.3703
rwrist -3.75471
rhand -8.00515 -30.5239
rfingers 7.12502
rthumb 17.9039 -59.7197
lclavicle -1.64075e-014 -5.46658e-015
lhumerus -26.5771 -3.88268 93.5462
lradius 20.2558
lwrist 4.60891
lhand -20.9936 -11.8877
lfingers 7.12502
lthumb 5.38053 18.024
rfemur -5.49296 0.190256 17.6823
rtibia 19.7269
rfoot -32.1743 -34.1534
rtoes 17.8487
lfemur -10.1571 -1.81788 -18.8796
ltibia 29.0957
lfoot -27.3351 20.2623
ltoes 9.28304
66
root -22.1918 16.6764 0.446826 -16.4272 91.7079 -21.4143
lowerback -9.1722 -1.04127 -3.73319
upperback 1.13777 -0.999798 0.599375
thorax 6.4278 -0.635386 2.5861
lowerneck -23.422 0.172298 -2.85777
upperneck 27.4771 1.3968 0.811329
head 13.1012 0.526028 1.07379
rclavicle -3.63636e-015 -1.10947e-014
rhumerus -28.5284 -14.9351 -82.0267
rradius 25.4681
rwrist -3.90065
rhand -8.06174 -30.5645
rfingers 7.12502
rthumb 17.8494 -59.7654
lclavicle -3.63636e-015 -1.10947e-014
lhumerus -26.5143 -3.83539 93.5825
lradius 20.1259
lwrist 4.66697
lhand -21.0843 -11.912
lfingers 7.12502
lthumb 5.29292 18.0019
rfemur -5.5387 0.395434 17.7739
rtibia 19.7911
rfoot -32.549 -34.1199
rtoes 18.8972
lfemur -10.1937 -1.82532 -18.799
ltibia 29.0533
lfoot -27.1955 20.287
ltoes 9.21496
67
root -22.1928 16.6774 0.446615 -16.3769 91.7184 -21.3723
lowerback -9.16762 -1.07443 -3.74463
upperback 1.13162 -1.04429 0.619606
thorax 6.42268 -0.657858 2.60734
lowerneck -23.3396 0.17518 -3.03634
upperneck 27.3549 1.39625 1.01513
head 13.0305 0.536239 1.18066
rclavicle -2.27671e-015 3.926e-015
rhumerus -28.5792 -14.7386 -82.0721
rradius 25.5699
rwrist -3.96378
rhand -8.05807 -30.51
rfingers 7.12502
rthumb 17.853 -59.7105
lclavicle -2.27671e-015 3.926e-015
lhumerus -26.3722 -3.8273 93.6062
lradius 19.8694
lwrist 4.79509
lhand -21.1357 -11.9515
lfingers 7.12502
lthumb 5.24334 17.9636
rfemur -5.56508 0.343187 17.7812
rtibia 19.792
rfoot -32.5185 -34.1545
rtoes 19.2683
lfemur -10.2011 -1.82625 -18.8058
ltibia 29.0459
lfoot -27.1328 20.3069
ltoes 8.49668
68
root -22.1914 16.6769 0.446192 -21.6641 91.7783 -26.6043
lowerback -9.1547 -1.08346 -3.92904
upperback 1.17612 -1.03252 0.575375
thorax 6.46482 -0.659402 2.66643
lowerneck -23.2553 0.188378 -3.12925
upperneck 27.1843 1.37305 1.22374
head 12.9407 0.546283 1.26974
rclavicle -8.91425e-016 -1.18028e-014
rhumerus -28.5823 -14.731 -82.085
rradius 25.5943
rwrist -4.01103
rhand -8.1268 -30.3067
rfingers 7.12502
rthumb 17.7868 -59.5132
lclavicle -8.91425e-016 -1.18028e-014
lhumerus -26.2313 -3.88627 93.6162
lradius 19.6907
lwrist 4.84029
lhand -21.1206 -12.0341
lfingers 7.12502
lthumb 5.25789 17.8807
rfemur -5.47429 0.188095 17.5805
rtibia 19.7202
rfoot -32.3885 -34.1452
rtoes 18.7779
lfemur -10.1379 -1.80531 -19.0019
ltibia 29.0669
lfoot -27.1109 20.3429
ltoes 6.64185
69
root -22.193 16.6796 0.447009 -19.4666 91.7334 -24.4414
lowerback -9.20159 -1.07442 -3.87654
upperback 1.19672 -1.02612 0.603933
thorax 6.51235 -0.656198 2.66723
lowerneck -23.2499 0.228569 -3.11418
upperneck 27.0923 1.39419 1.30348
head 12.9004 0.56832 1.30012
rclavicle 6.30054e-015 1.2424e-016
rhumerus -28.5284 -14.7727 -82.095
rradius 25.5791
rwrist -4.0666
rhand -8.18351 -30.1411
rfingers 7.12502
rthumb 17.7323 -59.3526
lclavicle 6.30054e-015 1.2424e-016
lhumerus -26.1324 -3.96205 93.6396
lradius 19.6315
lwrist 4.92851
lhand -21.1916 -12.0838
lfingers 7.12502
lthumb 5.18931 17.8327
rfemur -5.50515 0.318281 17.6851
rtibia 19.6879
rfoot -32.3072 -34.3166
rtoes 18.2084
lfemur -10.1911 -1.84208 -18.9013
ltibia 29.0643
lfoot -27.1598 20.3871
ltoes 6.87111
